<svg class="SVG Vectorial svelte-10rmvey" width="350" height="350" viewBox="65.83319091796875 65.39686584472656 350 350" xmlns="http://www.w3.org/2000/svg" xmlns:xlink="http://www.w3.org/1999/xlink"><g class="Vectorial" transform="translate(0 0) scale(1)"><defs></defs><g id="Layer-VectorialApp93R17-0" class="draggable" fill="none" stroke="none" stroke-width="0" stroke-dasharray="none" opacity="1" transform="matrix(1 0 0 1 0 0)">      <path id="Path-VectorialApp93R17-2" class="draggable" d="M 153.99975126982463,156.34356223513004 C 150.36119952130227,184.6654437630177 164.74301103175296,205.18144606489253 169.66698713102983,231.01036909191697 C 172.9217232264445,248.0832237091621 182.2617179808493,300.90010986958424 139.9404248383923,321.7079550074786 C 103.43917981670813,339.65429353723374 80.26662358443065,342.61042680113223 -9.333251674972416,342.3438618676701 C 18.30901145342004,334.7869703326509 25.580158614921032,336.3584728362151 42.77819500252889,324.72654059431534 C 28.931893955472802,321.7673401657222 15.33325149615871,321.8771754659063 1.6665038565845407,313.677114675131 C 83.59611063787986,317.3120138352479 126.74186019113053,305.43690554491604 142.33336978157263,290.01036733357995 C 172.36144945095313,260.3000101840252 114.28090890511115,206.7651254027722 103.66650081674766,180.01043164698984 C 90.87569033851555,147.7698945973055 100.17019082589303,116.03779966004936 125.9999962449076,99.67706001767334 C 160.56033694877348,77.7863517047289 199.92835409103324,90.1354115423439 212.33312355479256,104.34362482000512 C 177.71960260606875,108.38166921886372 156.88267852076297,133.90333609632268 153.99975126982463,156.34356223513004 Z" fill="rgba(0, 0, 0, 1)" fill-rule="evenodd" stroke="rgba(0, 0, 0, 1)" stroke-width="2" stroke-dasharray="none" stroke-linecap="butt" stroke-linejoin="miter" stroke-miterlimit="4" vector-effect="none" opacity="1" filter="none" mask="none" marker-start="none" marker-mid="none" marker-end="none" transform="matrix(1 0 0 1 139.333251953125 25.3333740234375)"></path>    </g></g></svg>